<svg width="163" height="35" viewBox="0 0 163 35" fill="none" xmlns="http://www.w3.org/2000/svg">
<path d="M23.2769 27.2203H18.6507L16.1167 19.5H7.30852L4.89463 27.2203H0.390747L9.11741 0.937012H14.5074L23.2769 27.2203ZM15.3528 16.261L13.0611 9.39791C12.8187 8.69679 12.3644 7.04569 11.6943 4.44659H11.6128C11.3459 5.56444 10.9161 7.21554 10.3254 9.39791L8.07445 16.261H15.3528V16.261Z" fill="white"/>
<path d="M45.7189 17.5112C45.7189 20.7344 44.8206 23.2822 43.0239 25.1525C41.4146 26.8174 39.4163 27.6489 37.0309 27.6489C34.4561 27.6489 32.6065 26.7523 31.48 24.959H31.3985V34.9426H27.0555V14.5072C27.0555 12.4809 27.0005 10.4012 26.8946 8.26823H30.7141L30.9565 11.2722H31.038C32.4863 9.00885 34.6843 7.87915 37.6339 7.87915C39.9398 7.87915 41.8648 8.76197 43.4048 10.5296C44.9489 12.2992 45.7189 14.6257 45.7189 17.5112ZM41.2944 17.6653C41.2944 15.8206 40.8667 14.2999 40.007 13.103C39.068 11.8548 37.807 11.2307 36.2263 11.2307C35.1548 11.2307 34.1811 11.5783 33.3113 12.2636C32.4394 12.9549 31.8691 13.8575 31.6022 14.9753C31.4678 15.4967 31.4005 15.9233 31.4005 16.2591V19.4191C31.4005 20.7976 31.8365 21.9609 32.7083 22.9109C33.5802 23.8609 34.7128 24.3349 36.1061 24.3349C37.7418 24.3349 39.015 23.7226 39.9255 22.5021C40.8381 21.2795 41.2944 19.6679 41.2944 17.6653Z" fill="white"/>
<path d="M68.2017 17.5112C68.2017 20.7344 67.3033 23.2822 65.5046 25.1525C63.8974 26.8174 61.8991 27.6489 59.5137 27.6489C56.9389 27.6489 55.0893 26.7523 53.9648 24.959H53.8833V34.9426H49.5404V14.5072C49.5404 12.4809 49.4854 10.4012 49.3795 8.26823H53.1989L53.4413 11.2722H53.5228C54.9691 9.00885 57.1671 7.87915 60.1187 7.87915C62.4226 7.87915 64.3476 8.76197 65.8917 10.5296C67.4296 12.2992 68.2017 14.6257 68.2017 17.5112ZM63.7772 17.6653C63.7772 15.8206 63.3474 14.2999 62.4878 13.103C61.5487 11.8548 60.2919 11.2307 58.7091 11.2307C57.6356 11.2307 56.6639 11.5783 55.7921 12.2636C54.9202 12.9549 54.3519 13.8575 54.085 14.9753C53.9526 15.4967 53.8833 15.9233 53.8833 16.2591V19.4191C53.8833 20.7976 54.3193 21.9609 55.187 22.9109C56.0589 23.8589 57.1915 24.3349 58.5889 24.3349C60.2246 24.3349 61.4978 23.7226 62.4084 22.5021C63.3209 21.2795 63.7772 19.6679 63.7772 17.6653Z" fill="white"/>
<path d="M93.3387 19.8497C93.3387 22.0854 92.5382 23.9044 90.9309 25.3086C89.1648 26.8432 86.7061 27.6095 83.5467 27.6095C80.6296 27.6095 78.2911 27.0644 76.5209 25.9722L77.5272 22.4627C79.4339 23.5805 81.5259 24.1414 83.8054 24.1414C85.4411 24.1414 86.7143 23.782 87.6289 23.067C88.5395 22.3521 88.9937 21.3922 88.9937 20.1954C88.9937 19.1289 88.6189 18.2302 87.8672 17.5015C87.1196 16.7727 85.8709 16.0953 84.1272 15.4692C79.3809 13.7529 77.0098 11.2387 77.0098 7.93258C77.0098 5.77193 77.8409 4.00035 79.5052 2.6218C81.1633 1.24128 83.3756 0.552002 86.1419 0.552002C88.6087 0.552002 90.658 0.968727 92.2937 1.8002L91.208 5.23275C89.6802 4.42695 87.9528 4.02406 86.0196 4.02406C84.4919 4.02406 83.2982 4.38943 82.4426 5.11623C81.7195 5.766 81.3569 6.55798 81.3569 7.4961C81.3569 8.53496 81.7704 9.39408 82.6015 10.0695C83.3246 10.6936 84.6385 11.3691 86.5452 12.0979C88.8776 13.0083 90.5908 14.0729 91.6928 15.2934C92.7908 16.51 93.3387 18.0327 93.3387 19.8497Z" fill="white"/>
<path d="M107.698 11.4284H102.911V20.6299C102.911 22.9703 103.754 24.1395 105.445 24.1395C106.221 24.1395 106.865 24.0743 107.374 23.9439L107.494 27.1415C106.639 27.4515 105.512 27.6076 104.117 27.6076C102.401 27.6076 101.061 27.1 100.094 26.0868C99.13 25.0717 98.6452 23.3692 98.6452 20.9775V11.4244H95.7933V8.26442H98.6452V4.79434L102.911 3.54614V8.26442H107.698V11.4284Z" fill="white"/>
<path d="M129.296 17.5882C129.296 20.5014 128.437 22.8931 126.722 24.7634C124.923 26.689 122.536 27.6489 119.559 27.6489C116.691 27.6489 114.408 26.7265 112.705 24.8819C111.002 23.0373 110.15 20.7087 110.15 17.9023C110.15 14.9654 111.026 12.5599 112.784 10.6896C114.538 8.81726 116.905 7.8811 119.881 7.8811C122.749 7.8811 125.057 8.80343 126.799 10.6501C128.465 12.4414 129.296 14.7541 129.296 17.5882ZM124.791 17.7245C124.791 15.9766 124.406 14.4776 123.625 13.2274C122.715 11.7146 121.413 10.9601 119.726 10.9601C117.981 10.9601 116.655 11.7166 115.744 13.2274C114.964 14.4796 114.579 16.0023 114.579 17.8035C114.579 19.5514 114.964 21.0504 115.744 22.2986C116.683 23.8114 117.995 24.5659 119.688 24.5659C121.346 24.5659 122.648 23.7957 123.587 22.2591C124.387 20.9852 124.791 19.4704 124.791 17.7245Z" fill="white"/>
<path d="M143.413 11.9714C142.983 11.8943 142.525 11.8548 142.044 11.8548C140.516 11.8548 139.335 12.4137 138.504 13.5336C137.781 14.5211 137.418 15.7693 137.418 17.2762V27.2203H133.077L133.118 14.2367C133.118 12.0523 133.063 10.0635 132.955 8.2702H136.738L136.897 11.8963H137.017C137.475 10.6501 138.198 9.64678 139.188 8.8943C140.156 8.21688 141.201 7.87915 142.327 7.87915C142.729 7.87915 143.091 7.9068 143.413 7.95617V11.9714Z" fill="white"/>
<path d="M162.836 16.8478C162.836 17.6022 162.785 18.2382 162.677 18.7576H149.649C149.699 20.6299 150.329 22.0618 151.539 23.0493C152.637 23.9321 154.057 24.3745 155.8 24.3745C157.729 24.3745 159.489 24.0763 161.072 23.4778L161.753 26.4008C159.903 27.1829 157.719 27.572 155.199 27.572C152.168 27.572 149.789 26.707 148.058 24.9788C146.33 23.2507 145.464 20.9301 145.464 18.0189C145.464 15.1611 146.269 12.7812 147.88 10.8833C149.567 8.85692 151.847 7.84375 154.715 7.84375C157.532 7.84375 159.665 8.85692 161.113 10.8833C162.26 12.4929 162.836 14.4837 162.836 16.8478ZM158.695 15.7556C158.724 14.5074 158.44 13.429 157.852 12.5186C157.1 11.3474 155.945 10.7628 154.391 10.7628C152.971 10.7628 151.816 11.3336 150.934 12.4791C150.211 13.3895 149.781 14.4817 149.649 15.7536H158.695V15.7556Z" fill="white"/>
</svg>
