<svg width="36" height="36" viewBox="0 0 36 36" fill="none" xmlns="http://www.w3.org/2000/svg">
<path d="M13.0508 13.1762C13.4365 12.7824 13.549 12.7663 15.9759 12.7663C18.1618 12.7663 18.2341 12.7744 18.5556 12.9351C19.0217 13.1681 19.2226 13.4976 19.2226 14.028C19.2226 14.5021 19.0297 14.8316 18.6118 15.1049C18.3868 15.2495 18.2502 15.2576 16.1126 15.2736C14.7946 15.2817 13.7419 15.2575 13.5812 15.2093C12.7534 14.9763 12.4481 13.7869 13.0508 13.1762ZM17.985 20.7704C13.6535 20.7704 13.5008 20.7864 13.1472 21.0999C12.8659 21.349 12.6891 21.8553 12.7374 22.2169C12.7936 22.5946 13.1231 23.0285 13.4767 23.1812C13.6535 23.2616 14.6098 23.3179 18.0011 23.2777L21.8504 23.2295L22.5897 23.1089C23.313 22.6991 23.4335 21.7106 22.8389 21.1481C22.4129 20.7704 22.437 20.7704 17.985 20.7704ZM35.9378 31.2255C35.6566 33.5077 34.0895 35.2757 31.8313 35.8463C31.2527 35.9909 31.0518 35.999 17.9368 35.9909C5.25567 35.9909 4.60474 35.9829 4.11453 35.8463C3.43949 35.6695 2.86088 35.4043 2.32246 35.0427C1.87243 34.7373 1.20543 34.0944 0.956307 33.7247C0.650931 33.2747 0.297339 32.4952 0.152688 31.9568C0.00803619 31.4183 0 31.2013 0 18.022C0 4.91497 0 4.63371 0.144651 4.06314C0.650931 2.0782 2.22602 0.559358 4.25918 0.109331C4.84582 -0.0192477 30.9474 -0.0433565 31.5822 0.0852226C33.2859 0.430779 34.6279 1.45941 35.4075 3.0104C36.0262 4.23993 35.97 2.88985 35.9941 17.5238C36.0102 26.8297 35.9941 30.7433 35.9378 31.2255ZM29.0749 16.3424C28.9865 15.9406 28.7374 15.571 28.4561 15.4183C28.3678 15.3701 27.8133 15.3138 27.2105 15.2817C26.2141 15.2334 26.1015 15.2174 25.7801 15.0325C25.2819 14.7432 25.1452 14.4218 25.1372 13.5619C25.1372 11.9225 24.4541 10.3957 23.104 9.02147C22.1397 8.04105 21.0709 7.37405 19.8414 7.00438C19.552 6.91598 18.8931 6.88384 16.6912 6.85973C13.2436 6.81955 12.4722 6.89188 11.2989 7.35798C9.12911 8.21785 7.57813 10.0421 7.00756 12.3726C6.90309 12.8065 6.87898 13.5137 6.85487 17.5398C6.82273 22.5866 6.85487 23.3339 7.17632 24.3304C7.95583 26.7975 10.1577 28.6217 12.3677 29.0235C13.107 29.1602 22.1879 29.1923 23.1121 29.0637C24.7274 28.8467 25.9971 28.1958 27.1864 26.9823C28.0463 26.1064 28.5847 25.1501 28.9383 23.8884C29.1955 23.0125 29.1714 16.7844 29.0749 16.3424Z" fill="#808080"/>
</svg>
