<svg width="43" height="51" viewBox="0 0 43 51" fill="none" xmlns="http://www.w3.org/2000/svg">
<path d="M35.3719 27.0734C35.3128 20.708 40.7476 17.6112 40.9961 17.467C37.9182 13.1161 33.1474 12.5216 31.4709 12.4742C27.4641 12.0654 23.5774 14.7988 21.5363 14.7988C19.4545 14.7988 16.3113 12.5137 12.9237 12.5808C8.56445 12.646 4.4863 15.093 2.24963 18.8929C-2.36629 26.6409 1.0763 38.0267 5.49871 44.2895C7.71093 47.3566 10.2959 50.7813 13.6795 50.6608C16.9896 50.5285 18.2261 48.6147 22.2207 48.6147C26.1787 48.6147 27.3398 50.6608 30.7906 50.5838C34.3432 50.5285 36.5798 47.5028 38.7146 44.408C41.2711 40.8925 42.2978 37.4303 42.3385 37.2525C42.255 37.2249 35.4391 34.7028 35.3719 27.0734Z" fill="white"/>
<path d="M28.8533 8.35434C30.6337 6.19566 31.8519 3.25884 31.5137 0.278564C28.9369 0.389164 25.7143 2.00669 23.8585 4.11796C22.2167 5.97841 20.75 9.02781 21.1289 11.8955C24.0235 12.1049 26.9956 10.4794 28.8533 8.35434Z" fill="white"/>
</svg>
