<svg width="159" height="15" viewBox="0 0 159 15" fill="none" xmlns="http://www.w3.org/2000/svg">
<path d="M11.9167 7.76768C11.9167 10.0923 11.1976 11.8421 9.76153 13.0172C8.43134 14.1015 6.54097 14.6446 4.09245 14.6446C2.87837 14.6446 1.83948 14.5933 0.969666 14.4906V1.78935C2.1043 1.6116 3.32652 1.52075 4.64652 1.52075C6.97893 1.52075 8.73689 2.01253 9.92245 2.99608C11.2506 4.108 11.9167 5.69788 11.9167 7.76768ZM9.66578 7.82495C9.66578 6.31803 9.2543 5.16265 8.43134 4.35685C7.60838 3.55303 6.40652 3.15013 4.82375 3.15013C4.15152 3.15013 3.57911 3.19358 3.10448 3.28443V12.9402C3.36726 12.9797 3.848 12.9975 4.54671 12.9975C6.18041 12.9975 7.44134 12.5571 8.32949 11.6762C9.21764 10.7954 9.66578 9.5116 9.66578 7.82495Z" fill="white"/>
<path d="M23.8517 9.79792C23.8517 11.2298 23.4301 12.4029 22.5867 13.3233C21.7026 14.2693 20.5314 14.7413 19.0688 14.7413C17.6591 14.7413 16.5367 14.2891 15.6995 13.3806C14.8643 12.474 14.4467 11.3305 14.4467 9.95197C14.4467 8.51022 14.8765 7.3272 15.7402 6.40882C16.6039 5.49045 17.7651 5.03027 19.2276 5.03027C20.6373 5.03027 21.7699 5.48255 22.6275 6.38907C23.4423 7.26992 23.8517 8.40752 23.8517 9.79792ZM21.6375 9.86507C21.6375 9.00595 21.446 8.26927 21.0651 7.65505C20.6169 6.91245 19.9793 6.54115 19.1502 6.54115C18.2927 6.54115 17.6408 6.91245 17.1926 7.65505C16.8097 8.26927 16.6202 9.0178 16.6202 9.9026C16.6202 10.7617 16.8117 11.4984 17.1926 12.1126C17.6551 12.8552 18.2988 13.2265 19.1299 13.2265C19.9447 13.2265 20.5843 12.8493 21.0447 12.0929C21.4399 11.4668 21.6375 10.7242 21.6375 9.86507Z" fill="white"/>
<path d="M39.8547 5.21997L36.85 14.5301H34.8945L33.6499 10.4873C33.3341 9.47807 33.0774 8.47477 32.8778 7.47937H32.8391C32.6537 8.50242 32.3971 9.50375 32.0671 10.4873L30.745 14.5301H28.7671L25.9417 5.21997H28.1356L29.2213 9.64595C29.4841 10.6927 29.7 11.6901 29.8732 12.6341H29.9119C30.0708 11.856 30.3336 10.8645 30.7043 9.6657L32.0671 5.22195H33.8067L35.1124 9.5709C35.4282 10.6315 35.6848 11.6525 35.8824 12.6361H35.9415C36.0861 11.6782 36.3041 10.6571 36.5934 9.5709L37.7586 5.22195H39.8547V5.21997Z" fill="white"/>
<path d="M50.9219 14.5301H48.7871V9.19759C48.7871 7.55439 48.1434 6.73279 46.8519 6.73279C46.2184 6.73279 45.7071 6.95794 45.3099 7.41022C44.9167 7.86249 44.7171 8.39574 44.7171 9.00602V14.5281H42.5823V7.88027C42.5823 7.06262 42.5558 6.17584 42.5049 5.21599H44.381L44.4808 6.67157H44.5399C44.7884 6.21929 45.1591 5.84602 45.646 5.54779C46.2245 5.20019 46.8723 5.02441 47.5812 5.02441C48.4775 5.02441 49.223 5.30486 49.8158 5.86774C50.5532 6.55701 50.9219 7.58599 50.9219 8.95269V14.5301V14.5301Z" fill="white"/>
<path d="M56.8089 14.5301H54.6761V0.947998H56.8089V14.5301Z" fill="white"/>
<path d="M69.3775 9.79792C69.3775 11.2298 68.9558 12.4029 68.1125 13.3233C67.2284 14.2693 66.0551 14.7413 64.5945 14.7413C63.1829 14.7413 62.0604 14.2891 61.2252 13.3806C60.3901 12.474 59.9725 11.3305 59.9725 9.95197C59.9725 8.51022 60.4023 7.3272 61.266 6.40882C62.1297 5.49045 63.2908 5.03027 64.7514 5.03027C66.163 5.03027 67.2936 5.48255 68.1532 6.38907C68.968 7.26992 69.3775 8.40752 69.3775 9.79792ZM67.1612 9.86507C67.1612 9.00595 66.9697 8.26927 66.5888 7.65505C66.1427 6.91245 65.503 6.54115 64.676 6.54115C63.8164 6.54115 63.1645 6.91245 62.7184 7.65505C62.3354 8.26927 62.146 9.0178 62.146 9.9026C62.146 10.7617 62.3375 11.4984 62.7184 12.1126C63.1808 12.8552 63.8245 13.2265 64.6556 13.2265C65.4704 13.2265 66.108 12.8493 66.5684 12.0929C66.9656 11.4668 67.1612 10.7242 67.1612 9.86507Z" fill="white"/>
<path d="M79.7093 14.53H77.7925L77.6336 13.4576H77.5745C76.9186 14.3128 75.9836 14.7413 74.7695 14.7413C73.863 14.7413 73.1297 14.4589 72.5777 13.898C72.0766 13.3885 71.826 12.7545 71.826 12.002C71.826 10.8644 72.3149 9.9974 73.2988 9.397C74.2806 8.7966 75.6617 8.50232 77.4401 8.51615V8.34235C77.4401 7.11587 76.776 6.50362 75.4458 6.50362C74.4986 6.50362 73.6634 6.7347 72.9423 7.1929L72.5084 5.8341C73.4006 5.29887 74.5027 5.03027 75.8023 5.03027C78.3119 5.03027 79.5708 6.31402 79.5708 8.88152V12.3101C79.5708 13.2403 79.6177 13.981 79.7093 14.53ZM77.493 11.3305V9.8947C75.1382 9.8552 73.9608 10.4813 73.9608 11.7709C73.9608 12.2568 74.0952 12.6202 74.3702 12.8631C74.6452 13.106 74.9956 13.2265 75.4132 13.2265C75.8817 13.2265 76.3197 13.0823 76.7189 12.796C77.1202 12.5076 77.3667 12.1422 77.4584 11.6939C77.4808 11.5932 77.493 11.4707 77.493 11.3305Z" fill="white"/>
<path d="M91.8399 14.5301H89.9454L89.8456 13.035H89.7865C89.1815 14.1726 88.1508 14.7414 86.7025 14.7414C85.5454 14.7414 84.5819 14.301 83.818 13.4201C83.0541 12.5393 82.6732 11.3957 82.6732 9.99152C82.6732 8.4846 83.0867 7.26405 83.9178 6.33185C84.7225 5.46285 85.7084 5.02835 86.8817 5.02835C88.1712 5.02835 89.0736 5.44902 89.5869 6.29235H89.6276V0.947998H91.7645V12.0218C91.7645 12.9283 91.7889 13.7638 91.8399 14.5301ZM89.6276 10.6038V9.05142C89.6276 8.78282 89.6073 8.56557 89.5686 8.39967C89.4484 7.90197 89.1897 7.48327 88.7965 7.14555C88.3993 6.80782 87.9206 6.63797 87.3686 6.63797C86.5721 6.63797 85.9488 6.9441 85.4904 7.55832C85.0362 8.17255 84.806 8.95662 84.806 9.9145C84.806 10.8348 85.0239 11.5814 85.4619 12.1561C85.9243 12.7684 86.5476 13.0745 87.3278 13.0745C88.0286 13.0745 88.5888 12.8197 89.0145 12.3082C89.426 11.8362 89.6276 11.2674 89.6276 10.6038Z" fill="white"/>
<path d="M110.098 9.79792C110.098 11.2298 109.676 12.4029 108.833 13.3233C107.949 14.2693 106.779 14.7413 105.315 14.7413C103.907 14.7413 102.785 14.2891 101.946 13.3806C101.11 12.474 100.693 11.3305 100.693 9.95197C100.693 8.51022 101.123 7.3272 101.986 6.40882C102.85 5.49045 104.011 5.03027 105.476 5.03027C106.883 5.03027 108.018 5.48255 108.874 6.38907C109.688 7.26992 110.098 8.40752 110.098 9.79792ZM107.886 9.86507C107.886 9.00595 107.694 8.26927 107.313 7.65505C106.863 6.91245 106.227 6.54115 105.396 6.54115C104.541 6.54115 103.889 6.91245 103.439 7.65505C103.056 8.26927 102.866 9.0178 102.866 9.9026C102.866 10.7617 103.058 11.4984 103.439 12.1126C103.901 12.8552 104.545 13.2265 105.376 13.2265C106.191 13.2265 106.832 12.8493 107.293 12.0929C107.686 11.4668 107.886 10.7242 107.886 9.86507Z" fill="white"/>
<path d="M121.576 14.5301H119.444V9.19759C119.444 7.55439 118.8 6.73279 117.506 6.73279C116.873 6.73279 116.362 6.95794 115.966 7.41022C115.571 7.86249 115.374 8.39574 115.374 9.00602V14.5281H113.237V7.88027C113.237 7.06262 113.212 6.17584 113.161 5.21599H115.036L115.135 6.67157H115.194C115.445 6.21929 115.816 5.84602 116.301 5.54779C116.881 5.20019 117.527 5.02441 118.238 5.02441C119.132 5.02441 119.878 5.30486 120.47 5.86774C121.21 6.55701 121.576 7.58599 121.576 8.95269V14.5301V14.5301Z" fill="white"/>
<path d="M135.944 6.77039H133.593V11.2931C133.593 12.4426 134.011 13.0173 134.838 13.0173C135.221 13.0173 135.538 12.9857 135.789 12.9205L135.844 14.4907C135.422 14.6447 134.868 14.7217 134.186 14.7217C133.342 14.7217 132.687 14.4729 132.212 13.9752C131.735 13.4775 131.499 12.6401 131.499 11.465V6.77039H130.095V5.22002H131.499V3.51362L133.591 2.90137V5.21804H135.942V6.77039H135.944Z" fill="white"/>
<path d="M147.245 14.5301H145.108V9.23707C145.108 7.5682 144.465 6.73277 143.175 6.73277C142.185 6.73277 141.509 7.21665 141.138 8.1844C141.075 8.38782 141.038 8.63667 141.038 8.92897V14.5281H138.906V0.947998H141.038V6.55897H141.079C141.751 5.5379 142.715 5.02835 143.964 5.02835C144.848 5.02835 145.579 5.3088 146.159 5.87167C146.883 6.5728 147.245 7.6156 147.245 8.99415V14.5301V14.5301Z" fill="white"/>
<path d="M158.903 9.43447C158.903 9.80577 158.875 10.1178 158.824 10.3726H152.421C152.45 11.293 152.755 11.9941 153.348 12.4799C153.89 12.9144 154.589 13.1317 155.444 13.1317C156.392 13.1317 157.255 12.9855 158.033 12.6913L158.367 14.129C157.457 14.5122 156.385 14.7038 155.145 14.7038C153.658 14.7038 152.487 14.2792 151.639 13.4299C150.788 12.5807 150.366 11.4411 150.366 10.0112C150.366 8.60695 150.759 7.43775 151.552 6.50555C152.379 5.51015 153.497 5.01245 154.909 5.01245C156.29 5.01245 157.339 5.51015 158.048 6.50555C158.62 7.29555 158.903 8.27317 158.903 9.43447ZM156.866 8.89925C156.882 8.28503 156.742 7.75573 156.453 7.30938C156.082 6.73465 155.518 6.4463 154.754 6.4463C154.057 6.4463 153.489 6.72675 153.055 7.28963C152.7 7.73795 152.491 8.27318 152.421 8.89925H156.866Z" fill="white"/>
</svg>
