<svg width="174" height="35" viewBox="0 0 174 35" fill="none" xmlns="http://www.w3.org/2000/svg">
<path d="M55.7935 9.96111C51.009 9.96111 47.1005 13.4914 47.1005 18.3623C47.1005 23.1936 51.009 26.7609 55.7935 26.7609C60.5882 26.7609 64.4967 23.1936 64.4967 18.3623C64.4967 13.4914 60.5882 9.96111 55.7935 9.96111ZM55.7935 23.4528C53.1683 23.4528 50.9097 21.3519 50.9097 18.3623C50.9097 15.3331 53.1683 13.2692 55.7935 13.2692C58.4187 13.2692 60.6875 15.3331 60.6875 18.3623C60.6875 21.3519 58.4187 23.4528 55.7935 23.4528V23.4528ZM36.8261 9.96111C32.0315 9.96111 28.1331 13.4914 28.1331 18.3623C28.1331 23.1936 32.0315 26.7609 36.8261 26.7609C41.6183 26.7609 45.5192 23.1936 45.5192 18.3623C45.5192 13.4914 41.6183 9.96111 36.8261 9.96111ZM36.8261 23.4528C34.1984 23.4528 31.9322 21.3519 31.9322 18.3623C31.9322 15.3331 34.1984 13.2692 36.8261 13.2692C39.4514 13.2692 41.7099 15.3331 41.7099 18.3623C41.7099 21.3519 39.4514 23.4528 36.8261 23.4528ZM14.2558 12.536V16.1058H23.0481C22.791 18.1006 22.1035 19.567 21.0493 20.5891C19.766 21.8235 17.7671 23.1936 14.2558 23.1936C8.84491 23.1936 4.60787 18.9597 4.60787 13.7136C4.60787 8.46752 8.84491 4.23361 14.2558 4.23361C17.1815 4.23361 19.3102 5.34208 20.8812 6.77889L23.4759 4.26323C21.2785 2.22898 18.3553 0.666263 14.2558 0.666263C6.83588 0.666263 0.600006 6.51967 0.600006 13.7136C0.600006 20.9075 6.83588 26.7609 14.2558 26.7609C18.2662 26.7609 21.2785 25.4871 23.6465 23.0973C26.0731 20.7446 26.8294 17.4365 26.8294 14.7653C26.8294 13.9358 26.7581 13.1729 26.6308 12.536H14.2558ZM106.549 15.3035C105.833 13.4248 103.626 9.96111 99.1289 9.96111C94.6729 9.96111 90.9629 13.3655 90.9629 18.3623C90.9629 23.0677 94.6347 26.7609 99.5567 26.7609C103.537 26.7609 105.833 24.4082 106.778 23.0381L103.824 21.1297C102.839 22.527 101.497 23.4528 99.5567 23.4528C97.6291 23.4528 96.2465 22.5962 95.3604 20.9075L106.949 16.2589L106.549 15.3035V15.3035ZM94.734 18.1006C94.6347 14.8616 97.3287 13.2026 99.2588 13.2026C100.771 13.2026 102.055 13.9358 102.482 14.985L94.734 18.1006V18.1006ZM85.3152 26.2499H89.1245V1.56242H85.3152V26.2499ZM79.0768 11.8324H78.9495C78.0939 10.8499 76.4618 9.96111 74.3942 9.96111C70.0553 9.96111 66.0882 13.6544 66.0882 18.3894C66.0882 23.0973 70.0553 26.7609 74.3942 26.7609C76.4618 26.7609 78.0939 25.8648 78.9495 24.8526H79.0768V26.0574C79.0768 29.2692 77.3071 30.9949 74.4527 30.9949C72.1254 30.9949 70.6817 29.3655 70.0859 27.9953L66.7731 29.3359C67.728 31.5627 70.2565 34.303 74.4527 34.303C78.9189 34.303 82.6875 31.7552 82.6875 25.5562V10.4721H79.0768V11.8324V11.8324ZM74.7201 23.4528C72.0949 23.4528 69.8974 21.3223 69.8974 18.3894C69.8974 15.4294 72.0949 13.2692 74.7201 13.2692C77.3072 13.2692 79.3467 15.4294 79.3467 18.3894C79.3467 21.3223 77.3072 23.4528 74.7201 23.4528V23.4528ZM124.383 1.56242H115.272V26.2499H119.071V16.8958H124.383C128.602 16.8958 132.74 13.9358 132.74 9.22789C132.74 4.52245 128.592 1.56242 124.383 1.56242V1.56242ZM124.482 13.4618H119.071V4.99645H124.482C127.319 4.99645 128.938 7.28004 128.938 9.22789C128.938 11.1387 127.319 13.4618 124.482 13.4618ZM147.967 9.9142C145.222 9.9142 142.368 11.0893 141.194 13.6939L144.565 15.064C145.291 13.6939 146.625 13.2495 148.036 13.2495C150.006 13.2495 152.005 14.3975 152.036 16.4243V16.6835C151.348 16.2984 149.877 15.7281 148.066 15.7281C144.435 15.7281 140.735 17.6661 140.735 21.2828C140.735 24.5909 143.709 26.7214 147.053 26.7214C149.609 26.7214 151.02 25.6031 151.906 24.3021H152.036V26.2104H155.705V16.7403C155.705 12.3632 152.334 9.9142 147.967 9.9142ZM147.509 23.443C146.266 23.443 144.534 22.8455 144.534 21.3519C144.534 19.4411 146.694 18.7079 148.563 18.7079C150.236 18.7079 151.02 19.0659 152.036 19.5374C151.738 21.8234 149.709 23.443 147.509 23.443V23.443ZM169.073 10.4549L164.706 21.1569H164.576L160.062 10.4549H155.965L162.748 25.4105L158.878 33.7327H162.847L173.3 10.4549H169.073V10.4549ZM134.828 26.2499H138.637V1.56242H134.828V26.2499Z" fill="white"/>
</svg>
