<svg width="51" height="55" viewBox="0 0 51 55" fill="none" xmlns="http://www.w3.org/2000/svg">
<path d="M1.72872 2.88902C1.13034 3.49633 0.784048 4.44186 0.784048 5.66636V49.3435C0.784048 50.568 1.13034 51.5135 1.72872 52.1208L1.87641 52.2542L27.1204 27.7888V27.2111L1.87641 2.74584L1.72872 2.88902Z" fill="white"/>
<path d="M38.5812 35.948L30.1759 27.7888V27.2111L38.5914 19.0519L38.7798 19.158L48.746 24.6559C51.5902 26.2162 51.5902 28.7837 48.746 30.3538L38.7798 35.8418L38.5812 35.948V35.948Z" fill="white"/>
<path d="M37.2521 37.3612L28.6481 29.0193L3.25648 53.6401C4.20115 54.6029 5.74166 54.719 7.49351 53.7561L37.2521 37.3612" fill="white"/>
<path d="M37.2521 17.6388L7.49351 1.24385C5.74166 0.290908 4.20115 0.406936 3.25648 1.36975L28.6481 25.9807L37.2521 17.6388Z" fill="white"/>
</svg>
