<svg width="36" height="26" viewBox="0 0 36 26" fill="none" xmlns="http://www.w3.org/2000/svg">
<path d="M35.2477 4.30088C34.8337 2.74192 33.6138 1.51413 32.065 1.09746C29.2575 0.340332 18 0.340332 18 0.340332C18 0.340332 6.74254 0.340332 3.93503 1.09746C2.38616 1.5142 1.16629 2.74192 0.752255 4.30088C0 7.12658 0 13.0221 0 13.0221C0 13.0221 0 18.9177 0.752255 21.7434C1.16629 23.3024 2.38616 24.479 3.93503 24.8957C6.74254 25.6528 18 25.6528 18 25.6528C18 25.6528 29.2575 25.6528 32.065 24.8957C33.6138 24.479 34.8337 23.3024 35.2477 21.7434C36 18.9177 36 13.0221 36 13.0221C36 13.0221 36 7.12658 35.2477 4.30088ZM14.3182 18.3749V7.66941L23.7272 13.0223L14.3182 18.3749Z" fill="#808080"/>
</svg>
