<svg width="36" height="36" viewBox="0 0 36 36" fill="none" xmlns="http://www.w3.org/2000/svg">
<path d="M18.004 8.76859C12.8962 8.76859 8.77613 12.8886 8.77613 17.9965C8.77613 23.1043 12.8962 27.2244 18.004 27.2244C23.1119 27.2244 27.2319 23.1043 27.2319 17.9965C27.2319 12.8886 23.1119 8.76859 18.004 8.76859ZM18.004 23.9958C14.7032 23.9958 12.0047 21.3053 12.0047 17.9965C12.0047 14.6876 14.6951 11.9971 18.004 11.9971C21.3129 11.9971 24.0033 14.6876 24.0033 17.9965C24.0033 21.3053 21.3049 23.9958 18.004 23.9958ZM29.7617 8.39112C29.7617 9.58777 28.798 10.5435 27.6094 10.5435C26.4127 10.5435 25.457 9.57974 25.457 8.39112C25.457 7.2025 26.4207 6.23875 27.6094 6.23875C28.798 6.23875 29.7617 7.2025 29.7617 8.39112ZM35.8735 10.5756C35.737 7.6924 35.0784 5.13847 32.9662 3.03429C30.862 0.930103 28.3081 0.271542 25.4249 0.12698C22.4533 -0.0416757 13.5467 -0.0416757 10.5751 0.12698C7.69994 0.263511 5.14601 0.922072 3.0338 3.02626C0.921584 5.13044 0.271054 7.68437 0.126492 10.5676C-0.042164 13.5391 -0.042164 22.4458 0.126492 25.4173C0.263023 28.3005 0.921584 30.8545 3.0338 32.9587C5.14601 35.0628 7.69191 35.7214 10.5751 35.866C13.5467 36.0346 22.4533 36.0346 25.4249 35.866C28.3081 35.7294 30.862 35.0709 32.9662 32.9587C35.0704 30.8545 35.7289 28.3005 35.8735 25.4173C36.0422 22.4458 36.0422 13.5472 35.8735 10.5756ZM32.0346 28.6057C31.4081 30.1799 30.1954 31.3926 28.6133 32.027C26.2441 32.9667 20.6222 32.7498 18.004 32.7498C15.3858 32.7498 9.75594 32.9587 7.39476 32.027C5.82064 31.4006 4.60792 30.1879 3.97345 28.6057C3.0338 26.2365 3.25064 20.6147 3.25064 17.9965C3.25064 15.3783 3.04183 9.7484 3.97345 7.38721C4.59989 5.81309 5.8126 4.60038 7.39476 3.96591C9.76397 3.02625 15.3858 3.2431 18.004 3.2431C20.6222 3.2431 26.2521 3.03429 28.6133 3.96591C30.1874 4.59235 31.4001 5.80506 32.0346 7.38721C32.9742 9.75643 32.7574 15.3783 32.7574 17.9965C32.7574 20.6147 32.9742 26.2445 32.0346 28.6057Z" fill="#808080"/>
</svg>
