<svg width="137" height="73" viewBox="0 0 137 73" fill="none" xmlns="http://www.w3.org/2000/svg">
<path d="M53.5967 34.7761H58.3439V68.1687H53.5967V51.4155H50.816C50.3537 58.3638 47.4557 62.5314 43.1328 62.5314C38.4236 62.5314 35.4531 57.6669 35.4531 49.6008C35.4531 41.5347 38.4236 36.7047 43.1328 36.7047C47.3418 36.7047 50.1984 40.6446 50.778 47.2824H53.5967V34.7761ZM46.2206 49.6111C46.2206 44.167 45.1028 41.5036 43.1156 41.5036C41.1284 41.5036 40.0106 44.167 40.0106 49.6111C40.0106 55.0552 41.1698 57.7566 43.1156 57.7566C45.0614 57.7566 46.2206 55.0828 46.2206 49.6008V49.6111ZM65.6406 34.1689V69.7108H60.8106V34.1758L65.6406 34.1689Z" fill="#808080"/>
<path d="M102.852 61.2963V65.4363H70.6569V61.2963H102.852ZM99.5714 55.1967C93.3924 53.9616 88.8384 50.5254 86.5614 46.0093C84.2844 50.5254 79.7684 53.9995 73.5894 55.1967L71.4297 50.9118C79.4199 49.5594 83.8497 43.9255 83.8497 38.8368V36.2734H89.3007V38.823C89.3007 44.0325 93.7029 49.5525 101.721 50.898L99.5714 55.1967Z" fill="#808080"/>
<path d="M136.859 65.0811V69.1314H110.494V58.5572H115.434V53.8065C112.309 53.9618 109.335 53.9997 106.671 53.9997L106.016 49.946C112.502 49.908 121.148 49.8321 128.638 48.8661L128.983 52.4955C126.205 52.9578 123.349 53.2683 120.492 53.4995V60.2166H115.59V65.0811H136.859ZM108.641 41.7626C108.641 37.9676 112.267 35.3939 117.48 35.3939C122.693 35.3939 126.319 37.9814 126.319 41.7626C126.319 45.5438 122.652 48.0933 117.48 48.0933C112.309 48.0933 108.641 45.5472 108.641 41.7626ZM113.427 41.7626C113.427 43.4876 115.086 44.388 117.48 44.388C119.875 44.388 121.496 43.5014 121.496 41.7626C121.496 40.0238 119.837 39.0992 117.48 39.0992C115.124 39.0992 113.427 40.0272 113.427 41.7626ZM130.991 54.8484V34.2036H136.086V61.1481H130.991V58.3329H124.315V54.8484H130.991Z" fill="#808080"/>
<path d="M29.5364 72.4985C29.2977 72.4982 29.0596 72.4739 28.8257 72.4261C22.7128 71.1358 17.036 68.2908 12.3436 64.166C7.65124 60.0412 4.10192 54.776 2.03853 48.879C-0.024864 42.982 -0.532586 36.6525 0.564408 30.502C1.6614 24.3514 4.32603 18.5878 8.3009 13.7677C12.2758 8.94767 17.4265 5.23417 23.2556 2.98595C29.0846 0.737733 35.3949 0.0307807 41.577 0.933387C47.759 1.83599 53.6038 4.31765 58.5467 8.13863C63.4897 11.9596 67.3636 16.9908 69.7945 22.7461C69.9746 23.1639 70.0704 23.6134 70.0761 24.0684C70.0819 24.5235 69.9975 24.9752 69.828 25.3975C69.6584 25.8198 69.407 26.2044 69.0881 26.5291C68.7693 26.8538 68.3893 27.1123 67.9702 27.2895C67.5511 27.4668 67.101 27.5594 66.6459 27.562C66.1908 27.5645 65.7397 27.477 65.3186 27.3045C64.8975 27.132 64.5146 26.8779 64.1922 26.5568C63.8697 26.2357 63.6139 25.854 63.4396 25.4336C61.4686 20.7735 58.3294 16.7004 54.3252 13.6074C50.3209 10.5144 45.5868 8.50607 40.5799 7.77633C35.5731 7.04659 30.4627 7.62009 25.7422 9.44144C21.0216 11.2628 16.8504 14.2705 13.6313 18.1741C10.4122 22.0777 8.25397 26.7454 7.36495 31.7264C6.47592 36.7074 6.88617 41.8335 8.55607 46.6097C10.226 51.3859 13.0991 55.6509 16.8981 58.9928C20.6971 62.3348 25.2935 64.6408 30.2437 65.6882C31.063 65.878 31.7848 66.3605 32.2734 67.0451C32.762 67.7296 32.9837 68.5691 32.8968 69.4056C32.8099 70.2421 32.4205 71.0181 31.8016 71.5877C31.1828 72.1573 30.3773 72.4812 29.5364 72.4985Z" fill="#808080"/>
</svg>
